<svg xmlns="http://www.w3.org/2000/svg" width="800" height="600" viewBox="0 0 800 600">
  <!-- Background -->
  <rect width="800" height="600" fill="#f9fafb" rx="10" />
  
  <!-- Window Frame -->
  <rect x="20" y="20" width="760" height="560" rx="8" fill="#ffffff" stroke="#e5e7eb" stroke-width="2" />
  
  <!-- Header Bar -->
  <rect x="20" y="20" width="760" height="40" rx="8" fill="#f3f4f6" stroke="#e5e7eb" stroke-width="2" />
  
  <!-- Window Controls -->
  <circle cx="50" cy="40" r="8" fill="#ef4444" />
  <circle cx="80" cy="40" r="8" fill="#fbbf24" />
  <circle cx="110" cy="40" r="8" fill="#10b981" />
  
  <!-- Preview tabs -->
  <rect x="40" y="80" width="720" height="40" rx="4" fill="#f3f4f6" />
  <rect x="50" y="85" width="100" height="30" rx="4" fill="#3b82f6" />
  <text x="100" y="105" font-family="Arial" font-size="12" fill="#ffffff" text-anchor="middle">Light Mode</text>
  
  <rect x="160" y="85" width="100" height="30" rx="4" fill="#f3f4f6" stroke="#d1d5db" stroke-width="1" />
  <text x="210" y="105" font-family="Arial" font-size="12" fill="#6b7280" text-anchor="middle">Dark Mode</text>
  
  <rect x="270" y="85" width="100" height="30" rx="4" fill="#f3f4f6" stroke="#d1d5db" stroke-width="1" />
  <text x="320" y="105" font-family="Arial" font-size="12" fill="#6b7280" text-anchor="middle">Mobile View</text>
  
  <!-- Preview frame -->
  <rect x="40" y="130" width="720" height="450" rx="6" fill="#ffffff" stroke="#e5e7eb" stroke-width="2" />
  
  <!-- GitHub README preview content -->
  <!-- Profile header -->
  <rect x="60" y="150" width="680" height="100" rx="4" fill="#f9fafb" stroke="#e5e7eb" stroke-width="1" />
  <circle cx="110" cy="200" r="30" fill="#dbeafe" />
  <rect x="160" y="180" width="200" height="20" rx="2" fill="#111827" />
  <rect x="160" y="210" width="300" height="15" rx="2" fill="#6b7280" />
  
  <!-- Stats section -->
  <rect x="60" y="270" width="680" height="130" rx="4" fill="#f9fafb" stroke="#e5e7eb" stroke-width="1" />
  <rect x="80" y="290" width="150" height="20" rx="2" fill="#111827" />
  
  <!-- GitHub stats cards -->
  <rect x="80" y="320" width="300" height="60" rx="4" fill="#ffffff" stroke="#d1d5db" stroke-width="1" />
  <rect x="420" y="320" width="300" height="60" rx="4" fill="#ffffff" stroke="#d1d5db" stroke-width="1" />
  <rect x="100" y="335" width="30" height="30" rx="4" fill="#dbeafe" />
  <rect x="140" y="335" width="220" height="10" rx="2" fill="#e5e7eb" />
  <rect x="140" y="355" width="180" height="10" rx="2" fill="#e5e7eb" />
  <rect x="440" y="335" width="30" height="30" rx="4" fill="#dbeafe" />
  <rect x="480" y="335" width="220" height="10" rx="2" fill="#e5e7eb" />
  <rect x="480" y="355" width="180" height="10" rx="2" fill="#e5e7eb" />
  
  <!-- Projects section -->
  <rect x="60" y="420" width="680" height="140" rx="4" fill="#f9fafb" stroke="#e5e7eb" stroke-width="1" />
  <rect x="80" y="440" width="100" height="20" rx="2" fill="#111827" />
  
  <!-- Project cards -->
  <rect x="80" y="470" width="200" height="70" rx="4" fill="#ffffff" stroke="#d1d5db" stroke-width="1" />
  <rect x="100" y="480" width="150" height="20" rx="2" fill="#111827" />
  <rect x="100" y="505" width="160" height="10" rx="2" fill="#6b7280" />
  <rect x="100" y="520" width="50" height="10" rx="2" fill="#3b82f6" />
  
  <rect x="300" y="470" width="200" height="70" rx="4" fill="#ffffff" stroke="#d1d5db" stroke-width="1" />
  <rect x="320" y="480" width="150" height="20" rx="2" fill="#111827" />
  <rect x="320" y="505" width="160" height="10" rx="2" fill="#6b7280" />
  <rect x="320" y="520" width="50" height="10" rx="2" fill="#8b5cf6" />
  
  <rect x="520" y="470" width="200" height="70" rx="4" fill="#ffffff" stroke="#d1d5db" stroke-width="1" />
  <rect x="540" y="480" width="150" height="20" rx="2" fill="#111827" />
  <rect x="540" y="505" width="160" height="10" rx="2" fill="#6b7280" />
  <rect x="540" y="520" width="50" height="10" rx="2" fill="#ec4899" />
</svg>
