<svg xmlns="http://www.w3.org/2000/svg" width="800" height="600" viewBox="0 0 800 600">
  <!-- Background -->
  <rect width="800" height="600" fill="#f9fafb" rx="10" />
  
  <!-- Window Frame -->
  <rect x="20" y="20" width="760" height="560" rx="8" fill="#ffffff" stroke="#e5e7eb" stroke-width="2" />
  
  <!-- Header Bar -->
  <rect x="20" y="20" width="760" height="40" rx="8" fill="#f3f4f6" stroke="#e5e7eb" stroke-width="2" />
  
  <!-- Window Controls -->
  <circle cx="50" cy="40" r="8" fill="#ef4444" />
  <circle cx="80" cy="40" r="8" fill="#fbbf24" />
  <circle cx="110" cy="40" r="8" fill="#10b981" />
  
  <!-- Template Browser Section -->
  <rect x="40" y="80" width="200" height="480" rx="6" fill="#f3f4f6" />
  
  <!-- Template Categories -->
  <rect x="50" y="100" width="180" height="30" rx="4" fill="#e5e7eb" />
  <rect x="50" y="140" width="180" height="30" rx="4" fill="#ffffff" stroke="#d1d5db" stroke-width="1" />
  <rect x="50" y="180" width="180" height="30" rx="4" fill="#ffffff" stroke="#d1d5db" stroke-width="1" />
  <rect x="50" y="220" width="180" height="30" rx="4" fill="#ffffff" stroke="#d1d5db" stroke-width="1" />
  
  <!-- Template Thumbnails -->
  <rect x="50" y="280" width="80" height="80" rx="4" fill="#dbeafe" />
  <rect x="140" y="280" width="80" height="80" rx="4" fill="#dbeafe" />
  <rect x="50" y="370" width="80" height="80" rx="4" fill="#dbeafe" />
  <rect x="140" y="370" width="80" height="80" rx="4" fill="#dbeafe" />
  <rect x="50" y="460" width="80" height="80" rx="4" fill="#dbeafe" />
  <rect x="140" y="460" width="80" height="80" rx="4" fill="#dbeafe" />
  
  <!-- Main Content Area -->
  <rect x="260" y="80" width="500" height="480" rx="6" fill="#ffffff" stroke="#e5e7eb" stroke-width="1" />
  
  <!-- Template Preview Header -->
  <rect x="280" y="100" width="460" height="50" rx="4" fill="#3b82f6" />
  <circle cx="300" cy="125" r="12" fill="#60a5fa" />
  <rect x="320" y="115" width="100" height="20" rx="2" fill="#93c5fd" />
  <rect x="620" y="115" width="100" height="20" rx="2" fill="#93c5fd" />
  
  <!-- Template Content Preview -->
  <rect x="280" y="170" width="460" height="100" rx="4" fill="#f3f4f6" />
  <rect x="300" y="190" width="300" height="20" rx="2" fill="#d1d5db" />
  <rect x="300" y="220" width="420" height="10" rx="2" fill="#e5e7eb" />
  <rect x="300" y="240" width="380" height="10" rx="2" fill="#e5e7eb" />
  
  <!-- Skills Section -->
  <rect x="280" y="290" width="460" height="80" rx="4" fill="#f3f4f6" />
  <rect x="300" y="310" width="100" height="20" rx="2" fill="#d1d5db" />
  
  <!-- Skill Badges -->
  <rect x="300" y="340" width="60" height="20" rx="10" fill="#3b82f6" />
  <rect x="370" y="340" width="60" height="20" rx="10" fill="#8b5cf6" />
  <rect x="440" y="340" width="60" height="20" rx="10" fill="#ec4899" />
  <rect x="510" y="340" width="60" height="20" rx="10" fill="#10b981" />
  <rect x="580" y="340" width="60" height="20" rx="10" fill="#f59e0b" />
  
  <!-- Projects Section -->
  <rect x="280" y="390" width="460" height="120" rx="4" fill="#f3f4f6" />
  <rect x="300" y="410" width="150" height="20" rx="2" fill="#d1d5db" />
  
  <!-- Project Cards -->
  <rect x="300" y="440" width="130" height="60" rx="4" fill="#ffffff" stroke="#d1d5db" stroke-width="1" />
  <rect x="450" y="440" width="130" height="60" rx="4" fill="#ffffff" stroke="#d1d5db" stroke-width="1" />
  <rect x="600" y="440" width="130" height="60" rx="4" fill="#ffffff" stroke="#d1d5db" stroke-width="1" />
  
  <!-- Controls -->
  <rect x="280" y="530" width="460" height="30" rx="4" fill="#f3f4f6" />
  <rect x="620" y="530" width="120" height="30" rx="15" fill="#3b82f6" />
</svg>
